# xmcd
#
# Track frame offsets: 
#        150
#        17798
#        27282
#        40674
#        53766
#        72449
#        83493
#        94952
#        103470
#        113811
#        124984
#        140961
#        154466
#        168386
#        181668
#        192946
#        204531
#        214326
#        227326
#        244447
#        258201
#        268891
#        280399
#        287376
#        310331
#        320284
#        328167
#        344163
#
# Disc length: 4776 seconds
#
# Revision: 1
# Processed by: cddbd v1.5.2PL0 Copyright (c) Steve Scherf et al.
# Submitted via: ExactAudioCopy v1.3
#
DISCID=b212a61c
DTITLE=Various Artist - Akella Presents - Rock'n'Roll - vol.6  CD1  N
DTITLE=ew!
DYEAR=2013
DGENRE=Rock and Roll
TTITLE0=WILLIE and the POOR BOYS - You Never Can Tell
TTITLE1=ES FEIV - Brand New Cadillac
TTITLE2=WILLIE and the POOR BOYS - Let's Talk It Over
TTITLE3=EL RIO TRIO - I'm Burning
TTITLE4=JOHNNY POWER - You Win Again
TTITLE5=TUPELO HIGHSHOTS - Maybe Little Baby
TTITLE6=VINCE RAY - Looking For Johnny
TTITLE7=RAY CHARLES and STRAY CATS - Hit the Road Jack
TTITLE8=The RUNNAWAY BOYS - Rock Around with Ollie Vee
TTITLE9=ROCKIN' LOUIE - Troubles Troubles
TTITLE10=MUNGO JERRY - In the Summertime
TTITLE11=JAN GILLAN and The JAVELINS - Too Much Monkey Business
TTITLE12=SHAKIN' STEVENS - This Ole House
TTITLE13=WILD WILLIE and BIG DEAL - Don‘t Rock Me
TTITLE14=RALPH REBEL - Rockabilly Vampire
TTITLE15=The FIREBIRDS - Comin' On Strong
TTITLE16=JOHNNY HALLYDAY - Blue Suede Shoes
TTITLE17=SHAKIN' STEVENS - A Rockin' Good Way
TTITLE18=LEE ROCKER - Rumblin' Bass
TTITLE19=HELLBILLY BOYS - Honky Tonk Train
TTITLE20=MICKE MUSTER - Rockin' Piano Man
TTITLE21=SLEEPY LaBEEF - Bottle Up and Go
TTITLE22=CRAZY CAVAN and RHYTHM ROCKERS - Teddy Boy Rock'n'Roll
TTITLE23=DANNY GATTON - Sun Medley
TTITLE24=ROBERT PLANT - My Bucket's Got a Hole In It
TTITLE25=CHUCK BERRY - Let it Rock
TTITLE26=TUPELO HIGHSHOTS - Cry
TTITLE27=ARSEN ROULETTE - I Do For You
EXTD=
EXTT0=
EXTT1=
EXTT2=
EXTT3=
EXTT4=
EXTT5=
EXTT6=
EXTT7=
EXTT8=
EXTT9=
EXTT10=
EXTT11=
EXTT12=
EXTT13=
EXTT14=
EXTT15=
EXTT16=
EXTT17=
EXTT18=
EXTT19=
EXTT20=
EXTT21=
EXTT22=
EXTT23=
EXTT24=
EXTT25=
EXTT26=
EXTT27=
PLAYORDER=
